<mxfile host="Electron" agent="Mozilla/5.0 (Windows NT 10.0; Win64; x64) AppleWebKit/537.36 (KHTML, like Gecko) draw.io/28.1.2 Chrome/138.0.7204.243 Electron/37.4.0 Safari/537.36" version="28.1.2">
  <diagram name="Page-1" id="Q_psNRZh8AAnEq4hdP_c">
    <mxGraphModel dx="1042" dy="1726" grid="1" gridSize="10" guides="1" tooltips="1" connect="1" arrows="1" fold="1" page="1" pageScale="1" pageWidth="850" pageHeight="1100" math="0" shadow="0">
      <root>
        <mxCell id="0" />
        <mxCell id="1" parent="0" />
        <mxCell id="kNNVa0XbBrz3yLrDR7fT-1" value="&lt;font style=&quot;font-size: 20px;&quot;&gt;&lt;b style=&quot;&quot;&gt;Data Flow Diagram&lt;/b&gt;&lt;/font&gt;" style="text;html=1;align=center;verticalAlign=middle;whiteSpace=wrap;rounded=1;fillColor=#d5e8d4;strokeColor=#82b366;" parent="1" vertex="1">
          <mxGeometry y="-10" width="320" height="50" as="geometry" />
        </mxCell>
        <mxCell id="kNNVa0XbBrz3yLrDR7fT-2" value="" style="rounded=1;whiteSpace=wrap;html=1;dashed=1;fillColor=none;strokeColor=light-dark(#7c7979, #ededed);" parent="1" vertex="1">
          <mxGeometry y="90" width="120" height="260" as="geometry" />
        </mxCell>
        <mxCell id="kNNVa0XbBrz3yLrDR7fT-4" value="&lt;font style=&quot;font-size: 16px;&quot;&gt;Sources&lt;/font&gt;" style="rounded=0;whiteSpace=wrap;html=1;fillColor=default;strokeColor=none;fontStyle=1" parent="1" vertex="1">
          <mxGeometry x="15" y="80" width="90" height="30" as="geometry" />
        </mxCell>
        <mxCell id="kNNVa0XbBrz3yLrDR7fT-29" style="edgeStyle=orthogonalEdgeStyle;rounded=0;orthogonalLoop=1;jettySize=auto;html=1;" parent="1" source="kNNVa0XbBrz3yLrDR7fT-5" target="kNNVa0XbBrz3yLrDR7fT-20" edge="1">
          <mxGeometry relative="1" as="geometry" />
        </mxCell>
        <mxCell id="kNNVa0XbBrz3yLrDR7fT-33" style="edgeStyle=orthogonalEdgeStyle;rounded=0;orthogonalLoop=1;jettySize=auto;html=1;entryX=0;entryY=0.5;entryDx=0;entryDy=0;" parent="1" source="kNNVa0XbBrz3yLrDR7fT-5" target="kNNVa0XbBrz3yLrDR7fT-21" edge="1">
          <mxGeometry relative="1" as="geometry" />
        </mxCell>
        <mxCell id="kNNVa0XbBrz3yLrDR7fT-34" style="edgeStyle=orthogonalEdgeStyle;rounded=0;orthogonalLoop=1;jettySize=auto;html=1;entryX=0;entryY=0.75;entryDx=0;entryDy=0;" parent="1" source="kNNVa0XbBrz3yLrDR7fT-5" target="kNNVa0XbBrz3yLrDR7fT-22" edge="1">
          <mxGeometry relative="1" as="geometry" />
        </mxCell>
        <mxCell id="kNNVa0XbBrz3yLrDR7fT-5" value="" style="image;aspect=fixed;html=1;points=[];align=center;fontSize=12;image=img/lib/azure2/general/Folder_Blank.svg;" parent="1" vertex="1">
          <mxGeometry x="32.46" y="147" width="56.68" height="46" as="geometry" />
        </mxCell>
        <mxCell id="kNNVa0XbBrz3yLrDR7fT-36" style="edgeStyle=orthogonalEdgeStyle;rounded=0;orthogonalLoop=1;jettySize=auto;html=1;entryX=0;entryY=0.5;entryDx=0;entryDy=0;" parent="1" source="kNNVa0XbBrz3yLrDR7fT-7" target="kNNVa0XbBrz3yLrDR7fT-24" edge="1">
          <mxGeometry relative="1" as="geometry" />
        </mxCell>
        <mxCell id="kNNVa0XbBrz3yLrDR7fT-37" style="edgeStyle=orthogonalEdgeStyle;rounded=0;orthogonalLoop=1;jettySize=auto;html=1;entryX=0;entryY=0.5;entryDx=0;entryDy=0;" parent="1" source="kNNVa0XbBrz3yLrDR7fT-7" target="kNNVa0XbBrz3yLrDR7fT-25" edge="1">
          <mxGeometry relative="1" as="geometry" />
        </mxCell>
        <mxCell id="kNNVa0XbBrz3yLrDR7fT-38" style="edgeStyle=orthogonalEdgeStyle;rounded=0;orthogonalLoop=1;jettySize=auto;html=1;entryX=0;entryY=0.5;entryDx=0;entryDy=0;" parent="1" source="kNNVa0XbBrz3yLrDR7fT-7" target="kNNVa0XbBrz3yLrDR7fT-23" edge="1">
          <mxGeometry relative="1" as="geometry" />
        </mxCell>
        <mxCell id="kNNVa0XbBrz3yLrDR7fT-7" value="" style="image;aspect=fixed;html=1;points=[];align=center;fontSize=12;image=img/lib/azure2/general/Folder_Blank.svg;" parent="1" vertex="1">
          <mxGeometry x="31.659999999999993" y="267" width="56.68" height="46" as="geometry" />
        </mxCell>
        <mxCell id="kNNVa0XbBrz3yLrDR7fT-9" value="" style="image;aspect=fixed;html=1;points=[];align=center;fontSize=12;image=img/lib/azure2/general/File.svg;" parent="1" vertex="1">
          <mxGeometry x="60" y="130" width="32.46" height="40" as="geometry" />
        </mxCell>
        <mxCell id="kNNVa0XbBrz3yLrDR7fT-10" value="" style="image;aspect=fixed;html=1;points=[];align=center;fontSize=12;image=img/lib/azure2/general/File.svg;" parent="1" vertex="1">
          <mxGeometry x="60" y="250" width="32.46" height="40" as="geometry" />
        </mxCell>
        <mxCell id="kNNVa0XbBrz3yLrDR7fT-11" value="&lt;font style=&quot;font-size: 14px;&quot;&gt;&lt;b&gt;CRM&lt;/b&gt;&lt;/font&gt;" style="text;html=1;align=center;verticalAlign=middle;whiteSpace=wrap;rounded=0;" parent="1" vertex="1">
          <mxGeometry x="32.46" y="170" width="60" height="30" as="geometry" />
        </mxCell>
        <mxCell id="kNNVa0XbBrz3yLrDR7fT-12" value="&lt;font style=&quot;font-size: 14px;&quot;&gt;&lt;b&gt;ERP&lt;/b&gt;&lt;/font&gt;" style="text;html=1;align=center;verticalAlign=middle;whiteSpace=wrap;rounded=0;" parent="1" vertex="1">
          <mxGeometry x="28.34" y="290" width="60" height="30" as="geometry" />
        </mxCell>
        <mxCell id="kNNVa0XbBrz3yLrDR7fT-13" value="" style="rounded=1;whiteSpace=wrap;html=1;fillColor=none;strokeColor=#d79b00;" parent="1" vertex="1">
          <mxGeometry x="200" y="120" width="120" height="230" as="geometry" />
        </mxCell>
        <mxCell id="kNNVa0XbBrz3yLrDR7fT-14" value="" style="rounded=1;whiteSpace=wrap;html=1;fillColor=none;strokeColor=#666666;fontColor=#333333;" parent="1" vertex="1">
          <mxGeometry x="400" y="120" width="120" height="230" as="geometry" />
        </mxCell>
        <mxCell id="kNNVa0XbBrz3yLrDR7fT-15" value="" style="rounded=1;whiteSpace=wrap;html=1;fillColor=none;strokeColor=#d79b00;gradientColor=#ffa500;" parent="1" vertex="1">
          <mxGeometry x="600" y="120" width="120" height="230" as="geometry" />
        </mxCell>
        <mxCell id="kNNVa0XbBrz3yLrDR7fT-16" value="Bronze Layer" style="rounded=1;whiteSpace=wrap;html=1;dashed=1;dashPattern=1 1;fillColor=#ffe6cc;strokeColor=#d79b00;fontStyle=1" parent="1" vertex="1">
          <mxGeometry x="200" y="80" width="120" height="35" as="geometry" />
        </mxCell>
        <mxCell id="kNNVa0XbBrz3yLrDR7fT-17" value="Silver Layer" style="rounded=1;whiteSpace=wrap;html=1;dashed=1;dashPattern=1 1;fillColor=#f5f5f5;fontColor=#333333;strokeColor=#666666;fontStyle=1" parent="1" vertex="1">
          <mxGeometry x="400" y="80" width="120" height="35" as="geometry" />
        </mxCell>
        <mxCell id="kNNVa0XbBrz3yLrDR7fT-18" value="Gold Layer" style="rounded=1;whiteSpace=wrap;html=1;dashed=1;dashPattern=1 1;fillColor=#ffcd28;strokeColor=#d79b00;fontStyle=1;gradientColor=#ffa500;" parent="1" vertex="1">
          <mxGeometry x="600" y="80" width="120" height="35" as="geometry" />
        </mxCell>
        <mxCell id="w2m1YobFTa8zN4wjaFdx-14" style="edgeStyle=orthogonalEdgeStyle;rounded=0;orthogonalLoop=1;jettySize=auto;html=1;entryX=0;entryY=0.5;entryDx=0;entryDy=0;" parent="1" source="kNNVa0XbBrz3yLrDR7fT-20" target="w2m1YobFTa8zN4wjaFdx-8" edge="1">
          <mxGeometry relative="1" as="geometry" />
        </mxCell>
        <mxCell id="kNNVa0XbBrz3yLrDR7fT-20" value="crm_cust_info" style="rounded=1;whiteSpace=wrap;html=1;fillColor=#ffe6cc;strokeColor=#d79b00;" parent="1" vertex="1">
          <mxGeometry x="205" y="130" width="110" height="20" as="geometry" />
        </mxCell>
        <mxCell id="w2m1YobFTa8zN4wjaFdx-15" style="edgeStyle=orthogonalEdgeStyle;rounded=0;orthogonalLoop=1;jettySize=auto;html=1;entryX=0;entryY=0.5;entryDx=0;entryDy=0;" parent="1" source="kNNVa0XbBrz3yLrDR7fT-21" target="w2m1YobFTa8zN4wjaFdx-9" edge="1">
          <mxGeometry relative="1" as="geometry" />
        </mxCell>
        <mxCell id="kNNVa0XbBrz3yLrDR7fT-21" value="crm_prd_info" style="rounded=1;whiteSpace=wrap;html=1;fillColor=#ffe6cc;strokeColor=#d79b00;" parent="1" vertex="1">
          <mxGeometry x="205" y="160" width="110" height="20" as="geometry" />
        </mxCell>
        <mxCell id="w2m1YobFTa8zN4wjaFdx-16" style="edgeStyle=orthogonalEdgeStyle;rounded=0;orthogonalLoop=1;jettySize=auto;html=1;" parent="1" source="kNNVa0XbBrz3yLrDR7fT-22" target="w2m1YobFTa8zN4wjaFdx-10" edge="1">
          <mxGeometry relative="1" as="geometry" />
        </mxCell>
        <mxCell id="kNNVa0XbBrz3yLrDR7fT-22" value="crm_sales_details" style="rounded=1;whiteSpace=wrap;html=1;fillColor=#ffe6cc;strokeColor=#d79b00;" parent="1" vertex="1">
          <mxGeometry x="205" y="190" width="110" height="20" as="geometry" />
        </mxCell>
        <mxCell id="w2m1YobFTa8zN4wjaFdx-17" style="edgeStyle=orthogonalEdgeStyle;rounded=0;orthogonalLoop=1;jettySize=auto;html=1;" parent="1" source="kNNVa0XbBrz3yLrDR7fT-23" target="w2m1YobFTa8zN4wjaFdx-11" edge="1">
          <mxGeometry relative="1" as="geometry" />
        </mxCell>
        <mxCell id="kNNVa0XbBrz3yLrDR7fT-23" value="erp_cust_az12" style="rounded=1;whiteSpace=wrap;html=1;fillColor=#ffe6cc;strokeColor=#d79b00;" parent="1" vertex="1">
          <mxGeometry x="205" y="250" width="110" height="20" as="geometry" />
        </mxCell>
        <mxCell id="w2m1YobFTa8zN4wjaFdx-18" style="edgeStyle=orthogonalEdgeStyle;rounded=0;orthogonalLoop=1;jettySize=auto;html=1;entryX=0;entryY=0.5;entryDx=0;entryDy=0;" parent="1" source="kNNVa0XbBrz3yLrDR7fT-24" target="w2m1YobFTa8zN4wjaFdx-12" edge="1">
          <mxGeometry relative="1" as="geometry" />
        </mxCell>
        <mxCell id="kNNVa0XbBrz3yLrDR7fT-24" value="erp_loc_a101" style="rounded=1;whiteSpace=wrap;html=1;fillColor=#ffe6cc;strokeColor=#d79b00;" parent="1" vertex="1">
          <mxGeometry x="205" y="280" width="110" height="20" as="geometry" />
        </mxCell>
        <mxCell id="w2m1YobFTa8zN4wjaFdx-20" style="edgeStyle=orthogonalEdgeStyle;rounded=0;orthogonalLoop=1;jettySize=auto;html=1;" parent="1" source="kNNVa0XbBrz3yLrDR7fT-25" target="w2m1YobFTa8zN4wjaFdx-13" edge="1">
          <mxGeometry relative="1" as="geometry" />
        </mxCell>
        <mxCell id="kNNVa0XbBrz3yLrDR7fT-25" value="erp_px_cat_g1v2" style="rounded=1;whiteSpace=wrap;html=1;fillColor=#ffe6cc;strokeColor=#d79b00;" parent="1" vertex="1">
          <mxGeometry x="205" y="310" width="110" height="20" as="geometry" />
        </mxCell>
        <mxCell id="w2m1YobFTa8zN4wjaFdx-8" value="crm_cust_info" style="rounded=1;whiteSpace=wrap;html=1;fillColor=#eeeeee;strokeColor=#36393d;" parent="1" vertex="1">
          <mxGeometry x="405" y="130" width="110" height="20" as="geometry" />
        </mxCell>
        <mxCell id="w2m1YobFTa8zN4wjaFdx-9" value="crm_prd_info" style="rounded=1;whiteSpace=wrap;html=1;fillColor=#eeeeee;strokeColor=#36393d;" parent="1" vertex="1">
          <mxGeometry x="405" y="160" width="110" height="20" as="geometry" />
        </mxCell>
        <mxCell id="w2m1YobFTa8zN4wjaFdx-10" value="crm_sales_details" style="rounded=1;whiteSpace=wrap;html=1;fillColor=#eeeeee;strokeColor=#36393d;" parent="1" vertex="1">
          <mxGeometry x="405" y="190" width="110" height="20" as="geometry" />
        </mxCell>
        <mxCell id="w2m1YobFTa8zN4wjaFdx-11" value="erp_cust_az12" style="rounded=1;whiteSpace=wrap;html=1;fillColor=#eeeeee;strokeColor=#36393d;" parent="1" vertex="1">
          <mxGeometry x="405" y="250" width="110" height="20" as="geometry" />
        </mxCell>
        <mxCell id="w2m1YobFTa8zN4wjaFdx-12" value="erp_loc_a101" style="rounded=1;whiteSpace=wrap;html=1;fillColor=#eeeeee;strokeColor=#36393d;" parent="1" vertex="1">
          <mxGeometry x="405" y="280" width="110" height="20" as="geometry" />
        </mxCell>
        <mxCell id="w2m1YobFTa8zN4wjaFdx-13" value="erp_px_cat_g1v2" style="rounded=1;whiteSpace=wrap;html=1;fillColor=#eeeeee;strokeColor=#36393d;" parent="1" vertex="1">
          <mxGeometry x="405" y="310" width="110" height="20" as="geometry" />
        </mxCell>
        <mxCell id="W3rlsmPoyWG_0B_YjRfv-1" value="dim_customers" style="rounded=1;whiteSpace=wrap;html=1;fillColor=#ffcd28;strokeColor=#d79b00;gradientColor=#ffa500;" vertex="1" parent="1">
          <mxGeometry x="605" y="140" width="110" height="20" as="geometry" />
        </mxCell>
        <mxCell id="W3rlsmPoyWG_0B_YjRfv-2" value="dim_products" style="rounded=1;whiteSpace=wrap;html=1;fillColor=#ffcd28;strokeColor=#d79b00;gradientColor=#ffa500;" vertex="1" parent="1">
          <mxGeometry x="605" y="225" width="110" height="20" as="geometry" />
        </mxCell>
        <mxCell id="W3rlsmPoyWG_0B_YjRfv-3" value="fact_sales" style="rounded=1;whiteSpace=wrap;html=1;fillColor=#ffcd28;strokeColor=#d79b00;gradientColor=#ffa500;" vertex="1" parent="1">
          <mxGeometry x="605" y="310" width="110" height="20" as="geometry" />
        </mxCell>
        <mxCell id="W3rlsmPoyWG_0B_YjRfv-9" value="" style="endArrow=classic;html=1;rounded=0;exitX=1;exitY=0.75;exitDx=0;exitDy=0;" edge="1" parent="1" source="w2m1YobFTa8zN4wjaFdx-8" target="W3rlsmPoyWG_0B_YjRfv-1">
          <mxGeometry width="50" height="50" relative="1" as="geometry">
            <mxPoint x="555" y="200" as="sourcePoint" />
            <mxPoint x="605" y="150" as="targetPoint" />
          </mxGeometry>
        </mxCell>
        <mxCell id="W3rlsmPoyWG_0B_YjRfv-10" value="" style="endArrow=classic;html=1;rounded=0;exitX=1;exitY=0.5;exitDx=0;exitDy=0;entryX=0;entryY=0.75;entryDx=0;entryDy=0;" edge="1" parent="1" source="w2m1YobFTa8zN4wjaFdx-11" target="W3rlsmPoyWG_0B_YjRfv-1">
          <mxGeometry width="50" height="50" relative="1" as="geometry">
            <mxPoint x="525" y="155" as="sourcePoint" />
            <mxPoint x="615" y="158" as="targetPoint" />
          </mxGeometry>
        </mxCell>
        <mxCell id="W3rlsmPoyWG_0B_YjRfv-11" value="" style="endArrow=classic;html=1;rounded=0;exitX=1;exitY=0;exitDx=0;exitDy=0;" edge="1" parent="1" source="w2m1YobFTa8zN4wjaFdx-12">
          <mxGeometry width="50" height="50" relative="1" as="geometry">
            <mxPoint x="508" y="290" as="sourcePoint" />
            <mxPoint x="600" y="160" as="targetPoint" />
          </mxGeometry>
        </mxCell>
        <mxCell id="W3rlsmPoyWG_0B_YjRfv-12" value="" style="endArrow=classic;html=1;rounded=0;exitX=1;exitY=0.75;exitDx=0;exitDy=0;entryX=0;entryY=0.25;entryDx=0;entryDy=0;" edge="1" parent="1" source="w2m1YobFTa8zN4wjaFdx-9" target="W3rlsmPoyWG_0B_YjRfv-2">
          <mxGeometry width="50" height="50" relative="1" as="geometry">
            <mxPoint x="525" y="290" as="sourcePoint" />
            <mxPoint x="610" y="170" as="targetPoint" />
          </mxGeometry>
        </mxCell>
        <mxCell id="W3rlsmPoyWG_0B_YjRfv-13" value="" style="endArrow=classic;html=1;rounded=0;exitX=1;exitY=0.75;exitDx=0;exitDy=0;entryX=0;entryY=0.25;entryDx=0;entryDy=0;" edge="1" parent="1" source="w2m1YobFTa8zN4wjaFdx-10" target="W3rlsmPoyWG_0B_YjRfv-3">
          <mxGeometry width="50" height="50" relative="1" as="geometry">
            <mxPoint x="525" y="185" as="sourcePoint" />
            <mxPoint x="615" y="240" as="targetPoint" />
          </mxGeometry>
        </mxCell>
        <mxCell id="W3rlsmPoyWG_0B_YjRfv-17" value="" style="endArrow=classic;html=1;rounded=0;entryX=1;entryY=0.25;entryDx=0;entryDy=0;exitX=1;exitY=0.25;exitDx=0;exitDy=0;" edge="1" parent="1" source="W3rlsmPoyWG_0B_YjRfv-1" target="W3rlsmPoyWG_0B_YjRfv-3">
          <mxGeometry width="50" height="50" relative="1" as="geometry">
            <mxPoint x="400" y="150" as="sourcePoint" />
            <mxPoint x="450" y="100" as="targetPoint" />
            <Array as="points">
              <mxPoint x="780" y="145" />
              <mxPoint x="780" y="180" />
              <mxPoint x="780" y="315" />
            </Array>
          </mxGeometry>
        </mxCell>
        <mxCell id="W3rlsmPoyWG_0B_YjRfv-18" value="" style="endArrow=classic;html=1;rounded=0;entryX=1;entryY=0.75;entryDx=0;entryDy=0;exitX=1;exitY=0.5;exitDx=0;exitDy=0;" edge="1" parent="1" source="W3rlsmPoyWG_0B_YjRfv-2" target="W3rlsmPoyWG_0B_YjRfv-3">
          <mxGeometry width="50" height="50" relative="1" as="geometry">
            <mxPoint x="725" y="155" as="sourcePoint" />
            <mxPoint x="725" y="325" as="targetPoint" />
            <Array as="points">
              <mxPoint x="790" y="235" />
              <mxPoint x="790" y="325" />
            </Array>
          </mxGeometry>
        </mxCell>
      </root>
    </mxGraphModel>
  </diagram>
</mxfile>
